<svg width="128" height="128" viewBox="0 0 128 128" fill="none" xmlns="http://www.w3.org/2000/svg">
<rect width="128" height="128" rx="16" fill="white"/>
<g clip-path="url(#clip0_216:71)">
<path d="M93.3359 60.8054L63.9435 70.4458L40.5803 59.4823L66.2044 53.2444L93.3359 60.8054Z" fill="#CCCBCB"/>
<path d="M58.8563 58.5371L32.4786 47.7626L24 29.7294L54.5228 40.8442L58.8563 58.5371Z" fill="#6F246F"/>
<path d="M55.2765 39.4454L24.1884 28.2928L65.4508 23L103.887 29.4269L55.2765 39.4454Z" fill="#91A436"/>
<path d="M97.8577 48.3296L60.439 58.7261L56.1055 40.7686L104 30.8635L97.8577 48.3296Z" fill="#29526D"/>
<path d="M26.8262 91.9949H24.8667V78.4606H26.8262V84.018C27.3537 83.7533 27.9567 83.6399 28.5596 83.6399C29.3509 83.6399 31.7249 84.0558 32.9684 84.0558C33.5337 84.0558 34.212 83.9802 34.7772 83.7155V78.4606H36.7367V91.9949H34.7772V85.6814C34.212 85.9461 33.496 86.0217 32.9684 86.0217C31.7249 86.0217 29.3509 85.6058 28.5596 85.6058C27.9943 85.6058 27.3914 85.6814 26.8262 85.9839V91.9949V91.9949Z" fill="#6C6C6C"/>
<path d="M43.3311 90.029H51.659V91.9949H41.3716V78.4606H50.8676V80.4643H43.3311V84.5472C44.1602 84.0936 44.9892 84.018 45.8935 84.018H48.8328V86.0217H45.8935C45.0268 86.0217 44.1602 86.0973 43.3311 86.5509V90.029Z" fill="#6C6C6C"/>
<path d="M65.7899 81.674C64.8102 80.6533 63.3782 80.0484 61.8333 80.0484C58.8187 80.0484 56.52 82.2033 56.52 85.2656C56.52 88.1766 59.0447 90.3315 61.8709 90.3315C63.2275 90.3315 64.471 89.84 65.4131 89.0083V86.551H63.6797L62.813 84.5851H67.3349V89.84C65.9783 91.3522 63.9812 92.2974 61.8333 92.2974C57.7635 92.2974 54.5982 89.1217 54.5982 85.0387C54.5982 81.0314 57.9896 78.0825 61.8709 78.0825C63.9058 78.0825 65.7522 78.9142 67.0711 80.2374L65.7899 81.674Z" fill="#6C6C6C"/>
<path d="M71.3669 91.9949V78.4606H73.2887V91.9949H71.3669Z" fill="#6C6C6C"/>
<path d="M81.4282 78.2338H83.6138L90.0951 91.9949H87.8719L86.9675 90.0291H82.8601C80.4107 90.0291 79.0918 90.823 78.7904 91.3901L78.4512 92.0328H76.3033L82.1441 79.935L81.4282 78.2338ZM86.1385 88.0254L83.1993 82.3167L80.2223 88.7815C80.7122 88.3656 81.805 88.0254 83.6514 88.0254H86.1385Z" fill="#6C6C6C"/>
<path d="M97.7824 92.2974C95.7099 92.2974 93.5996 91.2766 92.2431 89.5376L93.6373 88.2144C94.3533 89.0839 95.6722 90.3315 97.7824 90.3315C99.7796 90.3315 101.777 89.5754 101.777 87.8742C101.777 85.7949 99.7419 85.7949 97.7824 85.7949C94.5794 85.7949 92.8083 84.5851 92.8083 82.2789C92.8083 80.0862 94.8808 78.0447 97.7824 78.0447C99.8173 78.0447 101.588 78.6118 103.209 80.1996L101.965 81.6363C100.533 80.4643 99.4781 80.0484 97.7824 80.0484C96.2751 80.0484 94.9939 81.107 94.9939 82.2789C94.9939 83.1107 95.5591 83.829 97.8578 83.829C102.568 83.829 103.774 85.3034 103.774 87.8742C103.812 90.5961 101.174 92.2974 97.7824 92.2974Z" fill="#6C6C6C"/>
<path d="M26.7885 103.261C25.9972 103.261 25.658 102.732 25.658 102.732H25.5827L25.5073 103.11L25.4319 103.185H24.7913L24.716 103.11V97.1743L24.7913 97.0987H25.5073L25.5827 97.1743V99.2536H25.658C25.658 99.2536 25.9972 98.7243 26.7885 98.7243C27.919 98.7243 28.7103 99.5938 28.7103 100.993C28.7103 102.316 27.919 103.261 26.7885 103.261ZM26.7131 99.5182C26.0349 99.5182 25.5827 99.9719 25.5827 100.993C25.5827 102.051 26.0349 102.467 26.7131 102.467C27.3914 102.467 27.8436 101.938 27.8436 100.993C27.8436 100.047 27.3914 99.5182 26.7131 99.5182Z" fill="#6D6D6C"/>
<path d="M33.2322 103.185H32.6293L32.5539 103.11L32.4786 102.769H32.4032C32.4032 102.769 32.0641 103.299 31.3481 103.299C30.1423 103.299 29.6901 102.429 29.6901 101.484V98.9511L29.7654 98.8755H30.4437L30.5191 98.9511V101.484C30.5191 102.013 30.7075 102.543 31.3858 102.543C31.9887 102.543 32.4409 102.089 32.4409 101.068V98.9889L32.5163 98.9133H33.1945L33.2699 98.9889V103.185H33.2322Z" fill="#6D6D6C"/>
<path d="M35.3801 98.1194H34.7019L34.6265 98.0438V97.3633L34.7019 97.2877H35.3801L35.4555 97.3633V98.0438L35.3801 98.1194ZM35.3801 103.185H34.7019L34.6265 103.11V98.9134L34.7019 98.8377H35.3801L35.4555 98.9134V103.11L35.3801 103.185Z" fill="#6D6D6C"/>
<path d="M37.5657 103.185H36.8874L36.8121 103.11V97.1743L36.8874 97.0987H37.5657L37.6411 97.1743V103.11L37.5657 103.185Z" fill="#6D6D6C"/>
<path d="M42.6152 103.185H42.0123L41.9369 103.11L41.8615 102.769H41.7108C41.7108 102.769 41.3716 103.299 40.5803 103.299C39.3745 103.299 38.6585 102.354 38.6585 101.03C38.6585 99.7072 39.3368 98.7621 40.5803 98.7621C41.3716 98.7621 41.7108 99.2914 41.7108 99.2914H41.7862V97.2121L41.8615 97.1365H42.5398L42.6152 97.2121V103.148V103.185ZM40.6934 99.5182C40.0151 99.5182 39.5629 100.047 39.5629 100.993C39.5629 101.938 40.0151 102.467 40.6934 102.467C41.3716 102.467 41.8238 102.013 41.8238 100.993C41.8238 99.9719 41.3716 99.5182 40.6934 99.5182Z" fill="#6D6D6C"/>
<path d="M44.7631 98.1194H44.0848L44.0094 98.0438V97.3633L44.0848 97.2877H44.7631L44.8384 97.3633V98.0438L44.7631 98.1194ZM44.7631 103.185H44.0848L44.0094 103.11V98.9134L44.0848 98.8377H44.7631L44.8384 98.9134V103.11L44.7631 103.185Z" fill="#6D6D6C"/>
<path d="M49.8126 103.185H49.1343L49.0589 103.11V100.577C49.0589 100.123 48.9835 99.5182 48.1922 99.5182C47.4009 99.5182 47.0617 99.9719 47.0617 100.993V103.072L46.9864 103.148H46.2327L46.1573 103.072V98.8755L46.2327 98.7999H46.8356L46.911 98.8755L46.9864 99.2158H47.0617C47.0617 99.2158 47.4009 98.6865 48.1922 98.6865C49.398 98.6865 49.8502 99.4804 49.8502 100.501V103.034L49.8126 103.185Z" fill="#6D6D6C"/>
<path d="M53.9576 102.732H53.8822C53.8822 102.732 53.5431 103.261 52.7518 103.261C51.5459 103.261 50.83 102.316 50.83 100.993C50.83 99.6694 51.5082 98.7243 52.7518 98.7243C53.5431 98.7243 53.8822 99.2536 53.8822 99.2536H53.9576L54.033 98.9133L54.1083 98.8377H54.7113L54.7866 98.9133V102.656C54.7866 104.395 53.8446 105 52.7894 105C51.7343 105 51.1314 104.471 51.0561 103.79L51.1314 103.715H51.8851L51.9604 103.79C52.1488 104.13 52.4126 104.244 52.8271 104.244C53.6185 104.244 53.9576 103.715 53.9576 102.732ZM52.8271 99.5182C52.1488 99.5182 51.6967 100.047 51.6967 100.993C51.6967 101.938 52.1488 102.467 52.8271 102.467C53.5054 102.467 53.9576 102.013 53.9576 100.993C53.9576 99.9719 53.5431 99.5182 52.8271 99.5182Z" fill="#6D6D6C"/>
<path d="M59.4593 98.1194H58.781L58.7056 98.0438V97.3633L58.781 97.2877H59.4593L59.5346 97.3633V98.0438L59.4593 98.1194ZM59.4593 103.185H58.781L58.7056 103.11V98.9134L58.781 98.8377H59.4593L59.5346 98.9134V103.11L59.4593 103.185Z" fill="#6D6D6C"/>
<path d="M66.8073 103.185H66.1291L66.0537 103.11V100.501C66.0537 99.9719 65.9783 99.556 65.2624 99.556C64.6594 99.556 64.3203 100.01 64.3203 100.69V103.148L64.2449 103.223H63.5667L63.4913 103.148V100.539C63.4913 100.01 63.4159 99.5938 62.7 99.5938C62.2478 99.5938 61.7579 99.8585 61.7579 100.728V103.185L61.6825 103.261H60.9289L60.8535 103.185V98.9889L60.9289 98.9133H61.5318L61.6072 98.9889L61.6825 99.3292H61.7579C61.9463 99.0645 62.2854 98.7999 62.8884 98.7999C63.5667 98.7999 63.8304 99.1401 64.0188 99.4048H64.0942C64.358 99.0645 64.7725 98.7999 65.4131 98.7999C66.6189 98.7999 66.8827 99.5938 66.8827 100.539V103.148L66.8073 103.185Z" fill="#6D6D6C"/>
<path d="M71.4423 103.185H70.8394L70.764 103.11L70.6887 102.769H70.6133C70.6133 102.769 70.2742 103.299 69.4075 103.299C68.4654 103.299 67.9378 102.769 67.9378 101.9C67.9378 100.955 68.7292 100.501 69.8596 100.501C70.3118 100.501 70.651 100.577 70.651 100.577L70.7263 100.501V100.312C70.7263 99.7072 70.4626 99.5182 69.8596 99.5182C69.2567 99.5182 68.9929 99.7072 68.9929 100.047L68.8422 100.123H68.1639L68.0886 100.047C68.0886 99.4426 68.5408 98.7243 69.822 98.7243C71.1032 98.7243 71.5554 99.3292 71.5554 100.652V103.11L71.4423 103.185ZM70.651 101.333L70.5756 101.257C70.5756 101.257 70.3118 101.182 69.8973 101.182C69.106 101.182 68.7669 101.446 68.7669 101.862C68.7669 102.278 69.0306 102.467 69.5582 102.467C70.2365 102.467 70.6887 102.127 70.6887 101.598V101.333H70.651Z" fill="#6D6D6C"/>
<path d="M75.5874 102.732H75.512C75.512 102.732 75.1729 103.261 74.3815 103.261C73.1757 103.261 72.4597 102.316 72.4597 100.993C72.4597 99.6694 73.138 98.7243 74.3815 98.7243C75.1729 98.7243 75.512 99.2536 75.512 99.2536H75.5874L75.6627 98.9133L75.7381 98.8377H76.341L76.4164 98.9133V102.656C76.4164 104.395 75.4743 105 74.4192 105C73.3641 105 72.7612 104.471 72.6858 103.79L72.7612 103.715H73.4395L73.5148 103.79C73.7032 104.13 73.967 104.244 74.3815 104.244C75.2482 104.244 75.5874 103.715 75.5874 102.732ZM74.4569 99.5182C73.7786 99.5182 73.3264 100.047 73.3264 100.993C73.3264 101.938 73.7786 102.467 74.4569 102.467C75.1352 102.467 75.5874 102.013 75.5874 100.993C75.5874 99.9719 75.1729 99.5182 74.4569 99.5182Z" fill="#6D6D6C"/>
<path d="M78.5643 98.1194H77.886L77.8107 98.0438V97.3633L77.886 97.2877H78.5643L78.6397 97.3633V98.0438L78.5643 98.1194ZM78.5643 103.185H77.886L77.8107 103.11V98.9134L77.886 98.8377H78.5643L78.6397 98.9134V103.11L78.5643 103.185Z" fill="#6D6D6C"/>
<path d="M83.5761 103.185H82.8978L82.8224 103.11V100.577C82.8224 100.123 82.7471 99.5182 81.9557 99.5182C81.1644 99.5182 80.8253 99.9719 80.8253 100.993V103.072L80.7499 103.148H80.0716L79.9962 103.072V98.8755L80.0716 98.7999H80.6745L80.7499 98.8755L80.8253 99.2158H80.9006C80.9006 99.2158 81.2398 98.6865 82.0311 98.6865C83.2369 98.6865 83.6891 99.4804 83.6891 100.501V103.034L83.5761 103.185Z" fill="#6D6D6C"/>
<path d="M88.1734 103.185H87.5704L87.4951 103.11L87.4197 102.769H87.3067C87.3067 102.769 86.9675 103.299 86.1008 103.299C85.1588 103.299 84.6312 102.769 84.6312 101.9C84.6312 100.955 85.4225 100.501 86.553 100.501C87.0052 100.501 87.3443 100.577 87.3443 100.577L87.4197 100.501V100.312C87.4197 99.7072 87.1559 99.5182 86.553 99.5182C85.9501 99.5182 85.6863 99.7072 85.6863 100.047L85.6109 100.123H84.9327L84.8573 100.047C84.8573 99.4426 85.3095 98.7243 86.5907 98.7243C87.8719 98.7243 88.3241 99.3292 88.3241 100.652V103.11L88.1734 103.185ZM87.4197 101.333L87.3067 101.257C87.3067 101.257 87.0429 101.182 86.6284 101.182C85.837 101.182 85.4979 101.446 85.4979 101.862C85.4979 102.278 85.7617 102.467 86.2892 102.467C86.9675 102.467 87.4197 102.127 87.4197 101.598V101.333V101.333Z" fill="#6D6D6C"/>
<path d="M91.7532 103.185H91.0749C90.472 103.185 89.8691 102.845 89.8691 102.051V99.7072L89.7937 99.6316H89.1908L89.1154 99.556V98.9511L89.1908 98.8755H89.7937L89.8691 98.7999V98.006L89.9444 97.9304H90.6227L90.6981 98.006V98.7999L90.7734 98.8755H91.7155L91.7909 98.9511V99.556L91.7155 99.6316H90.7734L90.6981 99.7072V102.051C90.6981 102.316 90.8865 102.391 91.0372 102.391H91.7155L91.7909 102.467V103.072L91.7532 103.185Z" fill="#6D6D6C"/>
<path d="M93.7504 98.1194H93.0721L92.9967 98.0438V97.3633L93.0721 97.2877H93.7504L93.8257 97.3633V98.0438L93.7504 98.1194ZM93.7504 103.185H93.0721L92.9967 103.11V98.9134L93.0721 98.8377H93.7504L93.8257 98.9134V103.11L93.7504 103.185Z" fill="#6D6D6C"/>
<path d="M96.9534 98.7243C98.2723 98.7243 99.0259 99.5938 99.0259 100.993C99.0259 102.391 98.2346 103.261 96.9534 103.261C95.6345 103.261 94.8809 102.391 94.8809 100.993C94.8809 99.5938 95.6722 98.7243 96.9534 98.7243ZM96.9534 102.467C97.7447 102.467 98.1592 101.938 98.1592 100.993C98.1592 100.047 97.707 99.5182 96.9534 99.5182C96.1997 99.5182 95.7476 100.047 95.7476 100.993C95.7476 101.976 96.1621 102.467 96.9534 102.467Z" fill="#6D6D6C"/>
<path d="M103.736 103.185H103.058L102.983 103.11V100.577C102.983 100.123 102.907 99.5182 102.116 99.5182C101.325 99.5182 100.985 99.9719 100.985 100.993V103.072L100.91 103.148H100.232L100.156 103.072V98.8755L100.232 98.7999H100.835L100.91 98.8755L100.985 99.2158H101.061C101.061 99.2158 101.4 98.6865 102.191 98.6865C103.397 98.6865 103.849 99.4804 103.849 100.501V103.034L103.736 103.185Z" fill="#6D6D6C"/>
</g>
<defs>
<clipPath id="clip0_216:71">
<rect width="80" height="82" fill="white" transform="translate(24 23)"/>
</clipPath>
</defs>
</svg>
