<svg width="128" height="128" viewBox="0 0 128 128" fill="none" xmlns="http://www.w3.org/2000/svg">
<rect width="128" height="128" rx="16" fill="white"/>
<path d="M11.3765 69.394H9V58H11.3765V69.394Z" fill="#253858"/>
<path d="M26.5528 65.8456V58H28.913V69.394H26.4877L20.7581 61.5322V69.394H18.3817V58H20.807L26.5528 65.8456Z" fill="#253858"/>
<path d="M35.0388 58H43.1938V60.0998H40.2963V69.394H37.9362V60.0998H35.0388V58Z" fill="#253858"/>
<path d="M56.3044 58V60.0998H51.6817V62.5413H55.6696V64.6411H51.6817V67.2943H56.3044V69.394H49.3052V58H56.3044Z" fill="#253858"/>
<path d="M72.1598 69.394H69.2788L66.0884 64.7062H65.3234V69.394H62.9469V58H67.537C68.709 58 69.6043 58.3147 70.2228 58.9441C70.8522 59.5735 71.1669 60.3982 71.1669 61.4182C71.1669 63.0785 70.3422 64.0931 68.6927 64.4621L72.1598 69.394ZM65.3234 62.7692H67.1952C67.7161 62.7692 68.1122 62.6661 68.3835 62.46C68.6656 62.2429 68.8067 61.8957 68.8067 61.4182C68.8067 60.9516 68.6656 60.6152 68.3835 60.409C68.1122 60.2028 67.7161 60.0998 67.1952 60.0998H65.3234V62.7692Z" fill="#253858"/>
<path d="M86.4765 65.8456V58H88.8367V69.394H86.4114L80.6818 61.5322V69.394H78.3053V58H80.7306L86.4765 65.8456Z" fill="#253858"/>
<path d="M101.408 63.518L105.348 69.394H102.613L100.123 65.4875L97.648 69.394H94.93L98.8532 63.5342L95.1418 58H97.8435L100.123 61.5647L102.417 58H105.136L101.408 63.518Z" fill="#253858"/>
<path d="M110.559 58H118.714V60.0998H115.817V69.394H113.456V60.0998H110.559V58Z" fill="#253858"/>
</svg>
