<svg width="128" height="128" viewBox="0 0 128 128" fill="none" xmlns="http://www.w3.org/2000/svg">
<g clip-path="url(#clip0_8_154)">
<path d="M112 0H16C7.16344 0 0 7.16344 0 16V112C0 120.837 7.16344 128 16 128H112C120.837 128 128 120.837 128 112V16C128 7.16344 120.837 0 112 0Z" fill="white"/>
<path d="M100.882 70.6574C105.366 70.6574 109 67.0213 109 62.5358C109 58.0504 105.366 54.4142 100.882 54.4142H73.5749L73.5749 27.6153C73.7062 25.38 72.9184 23.1007 71.2114 21.3929L71.2079 21.3894C69.7381 19.9134 67.7043 19 65.4572 19C63.0104 19 60.8164 20.0831 59.3281 21.7962L23.3776 57.7642C22.9813 58.1607 22.6346 58.5879 22.3374 59.0383C20.257 62.1907 20.6037 66.4747 23.3776 69.2499L59.7313 105.621C62.9014 108.793 68.0412 108.793 71.2114 105.621C74.3815 102.45 74.3815 97.3072 71.2114 94.1356L40.5978 63.507L57.3396 46.7571V62.5184C57.3396 62.5242 57.3396 62.53 57.3396 62.5358C57.3396 62.5416 57.3396 62.5474 57.3396 62.5532V62.564C57.3396 67.0494 60.974 70.6856 65.4572 70.6856C65.6865 70.6856 65.9136 70.6761 66.138 70.6574L100.882 70.6574Z" fill="black"/>
</g>
<defs>
<clipPath id="clip0_8_154">
<rect width="128" height="128" fill="white"/>
</clipPath>
</defs>
</svg>
