<svg width="128" height="128" viewBox="0 0 128 128" fill="none" xmlns="http://www.w3.org/2000/svg">
<g clip-path="url(#clip0_216:70)">
<rect width="128" height="128" rx="16" fill="white"/>
<circle cx="48.5" cy="64.5" r="135.5" fill="white"/>
<path d="M45.3122 30.1454L20.0746 55.3163L31.8022 67.0129L36.3224 62.5047L29.115 55.3163L45.3122 39.1619L65.5295 59.3254L74.5697 50.3091L74.5562 50.2957L85.5192 39.3617L101.716 55.5162L90.7535 66.4502L90.7423 66.439L65.5295 91.5852L65.2965 91.3528L65.2798 91.3694L56.4093 82.5224L62.7519 76.1966L58.2317 71.6883L51.8892 78.0141L51.8679 77.9929L47.3396 82.5093L47.3609 82.5305L40.1696 89.7027L44.6898 94.2109L51.881 87.0387L65.2763 100.399L65.3155 100.36L65.5551 100.598L110.757 55.5162L85.5192 30.3453L65.5159 50.2957L45.3122 30.1454Z" fill="black"/>
<path d="M38.4777 73.6708L38.4694 73.6625L35.34 76.7835L30.8203 72.2758L42.0738 61.0521L46.5935 65.5598L42.9977 69.1461L43.006 69.1544L38.4777 73.6708Z" fill="black"/>
<path d="M45.163 80.3384L45.1698 80.3452L49.6981 75.8289L49.6913 75.822L56.0671 69.463L51.5469 64.9548L33.3923 83.0615L37.9125 87.5697L45.163 80.3384Z" fill="black"/>
</g>
<defs>
<clipPath id="clip0_216:70">
<rect width="128" height="128" rx="16" fill="white"/>
</clipPath>
</defs>
</svg>
