<svg width="128" height="128" viewBox="0 0 128 128" fill="none" xmlns="http://www.w3.org/2000/svg">
<rect width="128" height="128" rx="16" fill="white"/>
<path d="M109.217 50.5192C105.783 50.5192 102.909 52.4353 101.057 54.7432V50.7892C101.057 50.7153 101.027 50.6444 100.975 50.5922C100.924 50.5399 100.854 50.5105 100.78 50.5105H94.3737C94.2998 50.5105 94.2303 50.5399 94.1784 50.5922C94.1265 50.6444 94.0975 50.7153 94.0975 50.7892V87.7213C94.0975 87.7952 94.1265 87.8661 94.1784 87.9183C94.2303 87.9706 94.2998 87.9999 94.3737 87.9999H101.234C101.307 87.9999 101.377 87.9706 101.429 87.9183C101.481 87.8661 101.51 87.7952 101.51 87.7213V75.576H101.636C102.719 77.2483 105.7 79.2558 109.584 79.2558C116.905 79.2558 122.975 73.1592 122.975 64.8853C122.962 56.9598 116.919 50.5192 109.217 50.5192ZM108.577 72.2229C107.133 72.2593 105.71 71.861 104.492 71.0789C103.273 70.2967 102.313 69.1662 101.734 67.8317C101.155 66.4971 100.985 65.019 101.242 63.5861C101.501 62.153 102.177 60.8301 103.185 59.7861C104.192 58.7421 105.485 58.0243 106.899 57.7244C108.313 57.4246 109.783 57.5561 111.122 58.1023C112.462 58.6486 113.609 59.5847 114.419 60.7913C115.228 61.9978 115.662 63.4202 115.666 64.8766C115.682 65.8288 115.51 66.7747 115.162 67.66C114.814 68.5452 114.295 69.3524 113.636 70.035C112.978 70.7177 112.191 71.2624 111.324 71.6379C110.455 72.0134 109.522 72.2122 108.577 72.2229Z" fill="#5A31F4"/>
<path d="M73.9729 49.0573C67.5838 49.0573 64.3958 51.2346 61.8341 52.9983L61.7606 53.0506C61.6281 53.1405 61.5344 53.2776 61.4984 53.4344C61.4623 53.5912 61.4865 53.7559 61.5662 53.8954L64.0976 58.2893C64.1433 58.3696 64.2055 58.439 64.28 58.4931C64.3545 58.5472 64.4397 58.5847 64.5296 58.6028C64.6223 58.6187 64.7172 58.6144 64.8081 58.5904C64.8989 58.5664 64.9837 58.5231 65.0567 58.4634L65.2554 58.2936C66.5729 57.1832 68.681 55.6808 73.7871 55.2889C76.6296 55.0581 79.0918 55.8289 80.9019 57.5141C82.8934 59.3649 84.0813 62.3565 84.0813 65.5137C84.0813 71.3185 80.6902 74.972 75.2343 75.0461C70.7416 75.0199 67.722 72.6597 67.722 69.1673C67.722 67.2991 68.586 66.0885 70.2189 64.8735C70.3293 64.7902 70.4065 64.6696 70.4366 64.534C70.4666 64.3982 70.4476 64.2561 70.3831 64.1332L68.0979 59.7785C68.0564 59.7007 68 59.632 67.9317 59.5767C67.8634 59.5213 67.7847 59.4804 67.7004 59.4563C67.5286 59.4094 67.3454 59.4329 67.1906 59.5216C64.642 61.0458 61.523 63.8328 61.6872 69.189C61.8945 76.0128 67.519 81.2167 74.8282 81.43H75.1954H75.6619C84.3534 81.147 90.6215 74.6454 90.6215 65.849C90.6345 57.7014 84.794 49.0573 73.9729 49.0573Z" fill="#5A31F4"/>
<path d="M56.5474 56.0411C54.962 52.6924 51.9597 50.5324 47.4325 50.5324C46.0414 50.554 44.6739 50.8979 43.4356 51.5375C42.1974 52.1771 41.1217 53.0952 40.2918 54.2208L40.1233 54.4255V41.2831C40.1234 41.2087 40.0943 41.1374 40.0426 41.0844C39.9909 41.0315 39.9206 41.0011 39.8469 41H33.4664C33.392 41 33.3206 41.0298 33.2679 41.0829C33.2153 41.136 33.1856 41.208 33.1856 41.2831V78.9511C33.1856 79.0261 33.2153 79.0981 33.2679 79.1512C33.3206 79.2043 33.392 79.2341 33.4664 79.2341H40.3177C40.3914 79.233 40.4618 79.2027 40.5135 79.1496C40.5652 79.0967 40.5942 79.0254 40.5942 78.9511V62.8953C40.5942 59.7861 42.6548 57.5695 45.9638 57.5695C49.5881 57.5695 50.491 60.5612 50.491 63.6182V78.9511C50.491 79.0261 50.5205 79.0981 50.5732 79.1512C50.6258 79.2043 50.6973 79.2341 50.7718 79.2341H57.6101C57.6838 79.233 57.7541 79.2027 57.8058 79.1496C57.8576 79.0967 57.8866 79.0254 57.8865 78.9511V62.6994C57.8865 62.1464 57.865 61.5976 57.8218 61.062C57.6988 59.3249 57.2671 57.6243 56.5474 56.0411Z" fill="#5A31F4"/>
<path d="M22.3336 61.6194C22.3336 61.6194 18.8476 60.7921 17.5602 60.461C16.2729 60.1301 14.0352 59.3986 14.0352 57.7133C14.0352 55.9714 15.8452 55.4576 17.6812 55.4576C19.5171 55.4576 21.569 55.893 21.7202 57.9572C21.7267 58.031 21.7605 58.0999 21.8149 58.1498C21.8693 58.1998 21.9403 58.2274 22.014 58.2271L28.7659 58.201C28.8054 58.201 28.8445 58.193 28.8808 58.1773C28.9171 58.1615 28.9498 58.1384 28.9769 58.1094C29.004 58.0805 29.025 58.0463 29.0384 58.0088C29.0519 57.9714 29.0577 57.9315 29.0553 57.8918C28.6233 51.3162 22.9168 48.9604 17.6423 48.9604C11.3828 48.9604 6.84267 53.1148 6.84267 57.7133C6.84267 61.0577 7.78007 64.1973 15.1627 66.3835C16.4587 66.7667 18.2168 67.2544 19.7547 67.6898C21.6036 68.208 22.5972 68.9962 22.5972 70.2373C22.5972 71.67 20.5106 72.6716 18.5062 72.6716C15.5688 72.6716 13.4866 71.5699 13.3224 69.6016C13.3169 69.5287 13.2837 69.461 13.2298 69.4123C13.1759 69.3636 13.1054 69.3378 13.033 69.3403L6.29404 69.3707C6.25456 69.3701 6.21536 69.3776 6.17886 69.3928C6.14237 69.4081 6.10935 69.4306 6.08183 69.4591C6.05431 69.4877 6.03288 69.5217 6.01886 69.5589C6.00484 69.5961 5.99852 69.6358 6.00029 69.6756C6.31132 75.881 12.2554 79.2254 17.7892 79.2254C26.0271 79.2254 29.7768 74.5267 29.7768 70.1589C29.7422 68.1035 29.2756 63.4092 22.3336 61.6194Z" fill="#5A31F4"/>
</svg>
