<svg width="128" height="128" viewBox="0 0 128 128" fill="none" xmlns="http://www.w3.org/2000/svg">
<g clip-path="url(#clip0_8_143)">
<path d="M112 0H16C7.16344 0 0 7.16344 0 16V112C0 120.837 7.16344 128 16 128H112C120.837 128 128 120.837 128 112V16C128 7.16344 120.837 0 112 0Z" fill="white"/>
<path fill-rule="evenodd" clip-rule="evenodd" d="M64.566 17L17.868 63.698L64.566 110.396L111.264 63.698L64.566 17ZM64.566 27.6132L28.4812 63.698L50.7689 85.9857L75.1792 61.5754L80.4858 66.882L56.0754 91.2923L64.566 99.7829L100.651 63.698L78.3632 41.4103L53.9529 65.8206L48.6463 60.514L73.0566 36.1037L64.566 27.6132Z" fill="#008060"/>
</g>
<defs>
<clipPath id="clip0_8_143">
<rect width="128" height="128" fill="white"/>
</clipPath>
</defs>
</svg>
