<svg width="128" height="128" viewBox="0 0 128 128" fill="none" xmlns="http://www.w3.org/2000/svg">
<rect width="128" height="128" rx="16" fill="white"/>
<path d="M98.9795 29H29.0205C29.0092 29 29 29.0092 29 29.0205V98.9795C29 98.9908 29.0092 99 29.0205 99H98.9795C98.9908 99 99 98.9908 99 98.9795V29.0205C99 29.0092 98.9908 29 98.9795 29Z" fill="#0079BF"/>
<path d="M82.7305 41.9883H70.9727C69.236 41.9883 67.8281 43.3961 67.8281 45.1328V64.5469C67.8281 66.2836 69.236 67.6914 70.9727 67.6914H82.7305C84.4671 67.6914 85.875 66.2836 85.875 64.5469V45.1328C85.875 43.3961 84.4671 41.9883 82.7305 41.9883Z" fill="white"/>
<path d="M57.1641 41.9883H45.4062C43.6696 41.9883 42.2617 43.3961 42.2617 45.1328V79.3125C42.2617 81.0492 43.6696 82.457 45.4062 82.457H57.1641C58.9007 82.457 60.3086 81.0492 60.3086 79.3125V45.1328C60.3086 43.3961 58.9007 41.9883 57.1641 41.9883Z" fill="white"/>
</svg>
