<svg width="128" height="128" viewBox="0 0 128 128" fill="none" xmlns="http://www.w3.org/2000/svg">
<rect width="128" height="128" rx="16" fill="white"/>
<path d="M32.6628 63.5232C32.5733 63.2338 32.4827 62.9449 32.4827 62.5484C32.4827 61.8618 33.097 61.3194 33.7646 61.3194C34.7409 61.3194 34.8847 61.8428 35.0646 62.6027L36.4569 68.3825H36.4929L37.6131 63.1261C37.8294 62.0966 38.0455 61.284 39.2742 61.3194C40.5209 61.284 40.7733 62.0785 41.0087 63.1261L42.1469 68.3825H42.1829L43.4841 62.6027C43.6461 61.8428 43.8086 61.3194 44.7841 61.3194C45.4525 61.3194 46.0668 61.8618 46.0668 62.5484C46.0668 62.9452 45.9764 63.2338 45.8858 63.5232L43.9525 69.8091C43.5736 71.0559 43.2838 71.236 42.2362 71.236C41.135 71.236 40.8636 70.912 40.5923 69.8644L39.2932 64.6796H39.2561L37.956 69.8644C37.6847 70.912 37.4131 71.236 36.3122 71.236C35.2645 71.236 34.9759 71.0559 34.5967 69.8091L32.6628 63.5232V63.5232Z" fill="black"/>
<path d="M51.828 61.3183C55.0072 61.3183 56.7063 63.4861 56.7063 66.2671C56.7063 68.9054 55.4232 71.2352 51.828 71.2352C48.2335 71.2352 46.9517 68.9054 46.9517 66.2671C46.9517 63.4861 48.6488 61.3183 51.828 61.3183V61.3183ZM51.828 69.2846C53.3996 69.2846 54.068 67.8758 54.068 66.2674C54.068 64.5525 53.3642 63.2697 51.828 63.2697C50.2926 63.2697 49.5888 64.5527 49.5888 66.2674C49.5888 67.8758 50.2563 69.2846 51.828 69.2846Z" fill="black"/>
<path d="M58.5481 59.0803C58.5481 58.213 59.0729 57.7613 59.8671 57.7613C60.6624 57.7613 61.1864 58.2133 61.1864 59.0803V69.9185C61.1864 70.7852 60.6624 71.2366 59.8671 71.2366C59.0726 71.2366 58.5481 70.7852 58.5481 69.9185V59.0803V59.0803Z" fill="black"/>
<path d="M63.4264 59.0803C63.4264 58.213 63.9512 57.7613 64.7454 57.7613C65.5395 57.7613 66.0644 58.2133 66.0644 59.0803V65.0776L68.9901 61.8253C69.2606 61.5367 69.6053 61.32 70.0015 61.32C70.5977 61.32 71.2474 61.8434 71.2474 62.5124C71.2474 62.9829 71.0854 63.1267 70.8503 63.3791L68.8995 65.4206L71.6453 69.1059C71.7348 69.2325 71.9167 69.5203 71.9167 69.9545C71.9167 70.6232 71.374 71.2366 70.6702 71.2366C70.0196 71.2366 69.6758 70.9126 69.4775 70.6232L66.9843 67.0993L66.0641 67.9127V69.9185C66.0641 70.7852 65.5393 71.2366 64.7451 71.2366C63.9509 71.2366 63.4261 70.7852 63.4261 69.9185V59.0803H63.4264V59.0803Z" fill="black"/>
<path d="M74.4601 64.3469C74.5689 62.1612 76.1051 61.222 78.2356 61.222C79.8797 61.222 81.6671 61.7279 81.6671 64.2197V69.1699C81.6671 69.6033 81.8855 69.8556 82.3358 69.8556C82.4624 69.8556 82.6072 69.8194 82.6975 69.7842V70.7413C82.444 70.7956 82.2633 70.8138 81.9574 70.8138C80.8013 70.8138 80.6203 70.1632 80.6203 69.1869H80.5841C79.7888 70.3983 78.9762 71.0842 77.1879 71.0842C75.4713 71.0842 74.0628 70.2354 74.0628 68.3573C74.0628 65.7372 76.6095 65.6477 79.066 65.3591C80.006 65.2498 80.53 65.124 80.53 64.0934C80.53 62.5586 79.4288 62.1793 78.0917 62.1793C76.682 62.1793 75.6344 62.829 75.5973 64.3466H74.4601V64.3469V64.3469ZM80.53 65.7202H80.4937C80.3487 65.9915 79.8431 66.081 79.5364 66.1354C77.604 66.4781 75.2008 66.4594 75.2008 68.2848C75.2008 69.4231 76.213 70.1261 77.2771 70.1261C79.0124 70.1261 80.5478 69.0249 80.5297 67.2009V65.7202H80.53V65.7202Z" fill="black"/>
<path d="M83.8876 57.9161H85.0259V63.2632H85.0622C85.5499 61.9263 86.9051 61.2217 88.2955 61.2217C91.1312 61.2217 92.4872 63.5152 92.4872 66.1524C92.4872 68.7895 91.1312 71.0842 88.2955 71.0842C86.7964 71.0842 85.4955 70.307 84.9727 69.043H84.9356V70.8134H83.8879V57.9161H83.8876V57.9161ZM88.2952 62.1793C85.875 62.1793 85.0256 64.2196 85.0256 66.1524C85.0256 68.0857 85.875 70.126 88.2952 70.126C90.463 70.126 91.3487 68.0857 91.3487 66.1524C91.3487 64.2193 90.463 62.1793 88.2952 62.1793Z" fill="black"/>
<path d="M102.548 66.1527C102.548 68.8269 100.994 71.0845 98.141 71.0845C95.2855 71.0845 93.7331 68.8272 93.7331 66.1527C93.7331 63.4802 95.2855 61.222 98.141 61.222C100.994 61.222 102.548 63.4802 102.548 66.1527ZM94.8714 66.1527C94.8714 68.1395 95.9545 70.1264 98.1412 70.1264C100.326 70.1264 101.411 68.1395 101.411 66.1527C101.411 64.1667 100.326 62.1796 98.1412 62.1796C95.9545 62.1796 94.8714 64.1667 94.8714 66.1527Z" fill="black"/>
<path d="M111.742 70.8119H110.694V69.1318H110.658C110.063 70.3777 108.834 71.0824 107.442 71.0824C105.096 71.0824 104.174 69.709 104.174 67.5429V61.4904H105.312V67.5602C105.365 69.2403 105.999 70.1243 107.804 70.1243C109.755 70.1243 110.604 68.283 110.604 66.3851V61.4907H111.742V70.8119H111.742Z" fill="black"/>
<path d="M115.645 61.4927H117.541V62.4503H115.645V68.7359C115.645 69.4786 115.753 69.911 116.566 69.9646C116.89 69.9646 117.216 69.9473 117.541 69.911V70.8865C117.198 70.8865 116.872 70.9227 116.529 70.9227C115.011 70.9227 114.488 70.4177 114.507 68.8274V62.4503H112.88V61.4927H114.507V58.6936H115.645V61.4927V61.4927Z" fill="black"/>
<path d="M9.66332 72.2685C9.9828 72.2512 10.2422 72.1402 10.2422 71.8077C10.2422 71.4752 9.9828 71.2061 9.66332 71.2061C9.66332 71.2061 6.40055 71.6576 6.18842 67.9117C6.18842 66.2661 7.52808 64.9259 9.17447 64.9259C9.34441 64.9259 9.52511 64.9449 9.72846 64.9831L10.4711 65.1236L10.4314 64.3679C10.4289 64.3322 10.4272 64.2951 10.4246 64.2594C10.4195 64.1886 10.415 64.1221 10.415 64.0609C10.415 61.511 12.4888 59.4367 15.0373 59.4367C15.3689 59.4367 15.7128 59.476 16.0583 59.5548L16.4616 59.6457L16.6873 59.2979C17.5438 57.9758 18.992 57.1876 20.561 57.1876C23.0803 57.1876 25.1077 59.1597 25.179 61.6784L25.1918 62.1285L25.6294 62.2369C27.6955 62.7479 29.1394 64.5917 29.1394 66.7207C29.1394 68.411 28.1356 70.5737 25.6551 71.3197C23.1738 72.0666 22.5535 71.6573 22.3312 71.5514C22.108 71.4446 21.9435 71.2059 21.9435 70.8079C21.9435 70.4771 22.0763 70.0585 22.1856 69.6844L24.0388 63.42H22.649L22.1414 64.8089C21.6347 63.4865 20.6871 63.0008 19.6714 63.0008C16.5619 63.0008 14.4889 66.1987 14.4889 69.2641C14.4889 71.2059 15.7674 72.7492 17.6424 72.7492C18.7237 72.7492 19.7153 72.0436 20.3769 71.2716H20.4432C20.4871 72.2416 21.0108 72.7166 21.8035 72.863C22.5952 73.0086 23.7128 73.1681 25.7157 72.5942C27.719 72.0196 28.4279 71.3647 29.0295 70.5981C29.8531 69.547 30.3261 68.134 30.3261 66.721C30.3261 64.1923 28.7063 61.9834 26.3363 61.2057C26.1967 59.8556 25.5945 58.6054 24.6131 57.6481C23.5233 56.5854 22.0845 56 20.5602 56C18.7235 56 17.0181 56.8604 15.9215 58.3202C15.6233 58.2732 15.327 58.2494 15.0364 58.2494C11.9407 58.2494 9.40247 60.6834 9.23622 63.7397C9.21469 63.7397 9.19402 63.7389 9.17334 63.7389C6.87128 63.7389 5 65.6116 5 67.9114C5.00113 69.3918 5.88678 72.6718 9.66332 72.2685V72.2685ZM18.0403 71.2495C16.9374 71.2495 16.1433 70.3457 16.1433 69.1111C16.1433 67.1917 17.6002 64.5022 19.6723 64.5022C20.5993 64.5022 21.4591 65.4937 21.4591 66.5522C21.4591 68.3614 19.96 71.2495 18.0403 71.2495V71.2495Z" fill="black"/>
</svg>
